<svg width="18" height="18" viewBox="0 0 18 18" fill="none" xmlns="http://www.w3.org/2000/svg">
<mask id="mask0_3_15" style="mask-type:alpha" maskUnits="userSpaceOnUse" x="0" y="0" width="18" height="18">
<rect width="18" height="18" fill="#D9D9D9"/>
</mask>
<g mask="url(#mask0_3_15)">
<path d="M10.8565 8.99976L5.34395 3.48726C5.15645 3.29976 5.06583 3.07788 5.07208 2.82163C5.07833 2.56538 5.1752 2.34351 5.3627 2.15601C5.5502 1.96851 5.77208 1.87476 6.02833 1.87476C6.28458 1.87476 6.50645 1.96851 6.69395 2.15601L12.4502 7.93101C12.6002 8.08101 12.7127 8.24976 12.7877 8.43726C12.8627 8.62476 12.9002 8.81226 12.9002 8.99976C12.9002 9.18726 12.8627 9.37476 12.7877 9.56226C12.7127 9.74976 12.6002 9.91851 12.4502 10.0685L6.6752 15.8435C6.4877 16.031 6.26895 16.1216 6.01895 16.1154C5.76895 16.1091 5.5502 16.0123 5.3627 15.8248C5.1752 15.6373 5.08145 15.4154 5.08145 15.1591C5.08145 14.9029 5.1752 14.681 5.3627 14.4935L10.8565 8.99976Z" fill="#313B4A"/>
</g>
</svg>
