<svg width="24" height="24" viewBox="0 0 24 24" fill="none" xmlns="http://www.w3.org/2000/svg">
<mask id="mask0_362_11486" style="mask-type:alpha" maskUnits="userSpaceOnUse" x="0" y="0" width="24" height="24">
<rect y="24" width="24" height="24" transform="rotate(-90 0 24)" fill="#D9D9D9"/>
</mask>
<g mask="url(#mask0_362_11486)">
<path d="M12.0008 13.892L16.247 9.64601C16.3405 9.55235 16.4553 9.50235 16.5913 9.49601C16.7271 9.48951 16.8482 9.53951 16.9545 9.64601C17.061 9.75235 17.1143 9.87027 17.1143 9.99977C17.1143 10.1293 17.061 10.2472 16.9545 10.3535L12.5663 14.742C12.479 14.8292 12.3898 14.8904 12.2988 14.9258C12.2078 14.9609 12.1085 14.9785 12.0008 14.9785C11.8931 14.9785 11.7938 14.9609 11.7028 14.9258C11.6118 14.8904 11.5226 14.8292 11.4353 14.742L7.04705 10.3535C6.95338 10.26 6.90338 10.1453 6.89704 10.0093C6.89054 9.87343 6.94054 9.75235 7.04704 9.64602C7.15338 9.53952 7.2713 9.48627 7.4008 9.48627C7.5303 9.48627 7.64821 9.53951 7.75455 9.64602L12.0008 13.892Z" fill="#1C1B1F"/>
</g>
</svg>
