<svg width="16" height="68" viewBox="0 0 16 68" fill="none" xmlns="http://www.w3.org/2000/svg">
<path d="M9 1C9 0.447715 8.55228 -2.41411e-08 8 0C7.44772 2.41412e-08 7 0.447715 7 1L9 1ZM7.2929 67.7071C7.68342 68.0976 8.31659 68.0976 8.70711 67.7071L15.0711 61.3431C15.4616 60.9526 15.4616 60.3195 15.0711 59.9289C14.6805 59.5384 14.0474 59.5384 13.6569 59.9289L8 65.5858L2.34315 59.9289C1.95262 59.5384 1.31946 59.5384 0.928935 59.9289C0.53841 60.3195 0.53841 60.9526 0.928935 61.3431L7.2929 67.7071ZM7 1L7 67L9 67L9 1L7 1Z" fill="black"/>
</svg>
