<svg width="18" height="18" viewBox="0 0 18 18" fill="none" xmlns="http://www.w3.org/2000/svg">
<mask id="mask0_102_968" style="mask-type:alpha" maskUnits="userSpaceOnUse" x="0" y="0" width="18" height="18">
<rect x="18" width="18" height="18" transform="rotate(90 18 0)" fill="#D9D9D9"/>
</mask>
<g mask="url(#mask0_102_968)">
<path d="M9 10.856L14.5125 5.34347C14.7 5.15597 14.9219 5.06534 15.1781 5.07159C15.4344 5.07784 15.6562 5.17472 15.8437 5.36222C16.0312 5.54972 16.125 5.77159 16.125 6.02784C16.125 6.28409 16.0312 6.50597 15.8437 6.69347L10.0688 12.4497C9.91875 12.5997 9.75 12.7122 9.5625 12.7872C9.375 12.8622 9.1875 12.8997 9 12.8997C8.8125 12.8997 8.625 12.8622 8.4375 12.7872C8.25 12.7122 8.08125 12.5997 7.93125 12.4497L2.15625 6.67472C1.96875 6.48722 1.87812 6.26847 1.88437 6.01847C1.89062 5.76847 1.9875 5.54972 2.175 5.36222C2.3625 5.17472 2.58438 5.08097 2.84063 5.08097C3.09688 5.08097 3.31875 5.17472 3.50625 5.36222L9 10.856Z" fill="#6C6660"/>
</g>
</svg>
