<svg width="90" height="124" viewBox="0 0 90 124" fill="none" xmlns="http://www.w3.org/2000/svg">
<path d="M0 123.737V123.242H14.9323V0.494955H0V0H87.5916V33.8215H87.091C87.091 27.9371 86.1178 22.4652 84.1713 17.4057C82.2805 12.3462 79.2773 8.27665 75.1619 5.19697C71.0465 2.06229 65.7354 0.494955 59.2286 0.494955H30.8656V123.242H57.4767C65.1514 123.242 71.269 121.647 75.8293 118.458C80.3896 115.268 83.6708 110.924 85.6729 105.424C87.7306 99.8697 88.7594 93.6003 88.7594 86.6161H89.3434V123.737H0ZM58.7281 77.872C58.7281 74.1873 57.8938 71.0252 56.2254 68.3854C54.6126 65.6907 52.4437 63.6284 49.7186 62.1986C46.9936 60.7137 44.0461 59.9713 40.8761 59.9713H24.3588V59.4764H40.8761C44.0461 59.4764 46.9936 58.8164 49.7186 57.4966C52.4437 56.1767 54.6126 54.2519 56.2254 51.7222C57.8938 49.1924 58.7281 46.0852 58.7281 42.4006H59.312V77.872H58.7281Z" fill="black"/>
</svg>
