<svg width="1024" height="1024" viewBox="0 0 1024 1024" fill="none" xmlns="http://www.w3.org/2000/svg">
<rect width="1024" height="1024" rx="20" fill="#D8ED1C"/>
<path d="M956 299V296H953H789.329H786.329V299V300.7V303.7H789.329H843.757V510.483H660.243V303.7H714.671H717.671V300.7V299V296H714.671H551H548V299V300.7V303.7H551H599.399V719.3H551H548V722.3V724V727H551H714.671H717.671V724V722.3V719.3H714.671H660.243V518.183H843.757V719.3H789.329H786.329V722.3V724V727H789.329H953H956V724V722.3V719.3H953H904.027V303.7H953H956V300.7V299Z" fill="black" stroke="black" stroke-width="6"/>
<path d="M121.865 296H71H68V299V300.678V303.678H71H123.514V713.73H71H68V716.73V718.408V721.408H71H196.047H199.047V718.408V716.73V713.73H196.047H131.196V310.538L397.634 725.621L398.52 727H400.159H402.121H405.121V724V303.678H461H464V300.678V299V296H461H333.15H330.15V299V300.678V303.678H333.15H397.159V622.93L194.106 297.412L193.225 296H191.561H131.196H128.196H127.355H121.865Z" fill="black" stroke="black" stroke-width="6"/>
</svg>
