<svg width="512" height="512" viewBox="0 0 512 512" fill="none" xmlns="http://www.w3.org/2000/svg">
<rect width="512" height="512.003" rx="20" fill="#D8ED1C"/>
<path d="M485 136V134H483H390.579H388.579V136V136.96V138.96H390.579H421.007V255.12H317.993V138.96H348.421H350.421V136.96V136V134H348.421H256H254V136V136.96V138.96H256H283.024V373.04H256H254V375.04V376V378H256H348.421H350.421V376V375.04V373.04H348.421H317.993V260.08H421.007V373.04H390.579H388.579V375.04V376V378H390.579H483H485V376V375.04V373.04H483H455.652V138.96H483H485V136.96V136Z" fill="black" stroke="black" stroke-width="4"/>
<path d="M30 138.947H59.3156V369.895H30H28V371.895V372.842V374.842H30H100.539H102.539V372.842V371.895V369.895H100.539H64.2646V143.564L213.996 377.08L214.586 378H215.679H216.786H218.786V376V138.947H250H252V136.947V136V134H250H177.879H175.879V136V136.947V138.947H177.879H213.679V317.851L99.7061 134.942L99.1189 134H98.0086H64.2646H62.2646H61.7901H58.1318H30H28V136V136.947V138.947H30Z" fill="black" stroke="black" stroke-width="4"/>
</svg>
