<svg width="375" height="812" viewBox="0 0 375 812" fill="none" xmlns="http://www.w3.org/2000/svg">
<g clip-path="url(#clip0_635_17722)">
<rect width="375" height="812" fill="#D8ED1C"/>
<path d="M25.0866 380.172V431.009H33.4933V431.213H18V431.009H24.8782V380.376H18V380.172H25.0866ZM66.321 380.172V380.376H59.0259V431.894H58.7827L24.9824 380.172H32.9375L58.7827 420.869V380.376H50.4803V380.172H66.321Z" fill="black"/>
<path d="M68.8193 431.213V431.009H76.427V380.376H68.8193V380.172H91.3992V380.376H83.062V431.009H91.3992V431.213H68.8193Z" fill="black"/>
<path d="M100.985 380.172V431.009H109.392V431.213H93.8984V431.009H100.777V380.376H93.8984V380.172H100.985ZM142.219 380.172V380.376H134.924V431.894H134.681L100.881 380.172H108.836L134.681 420.869V380.376H126.379V380.172H142.219Z" fill="black"/>
<path d="M144.718 431.213V431.009H150.936V380.376H144.718V380.172H181.193V394.123H180.985C180.985 391.696 180.579 389.439 179.769 387.352C178.981 385.265 177.731 383.586 176.017 382.316C174.303 381.023 172.092 380.376 169.382 380.376H157.571V431.009H168.652C171.848 431.009 174.396 430.351 176.295 429.035C178.194 427.72 179.56 425.927 180.394 423.659C181.251 421.368 181.679 418.782 181.679 415.901H181.922V431.213H144.718ZM169.174 412.294C169.174 410.774 168.826 409.47 168.131 408.381C167.46 407.269 166.557 406.418 165.422 405.829C164.287 405.216 163.06 404.91 161.74 404.91H154.861V404.706H161.74C163.06 404.706 164.287 404.433 165.422 403.889C166.557 403.345 167.46 402.551 168.131 401.507C168.826 400.464 169.174 399.182 169.174 397.662H169.417V412.294H169.174Z" fill="black"/>
<path d="M233.054 380.512V380.716H226.767V431.349H233.054V431.553H213.254V431.349H220.201V406.475H197.274V431.349H204.222V431.553H184.421V431.349H190.639V380.716H184.421V380.512H204.222V380.716H197.274V406.27H220.201V380.716H213.254V380.512H233.054Z" fill="black"/>
<path d="M248.196 415.559V415.355H270.325V415.559H248.196ZM260.911 380L279.253 431.858H284.22V432.062H264.072V431.858H271.645L257.645 389.324L242.465 431.858H250.837V432.062H235.552V431.858H242.222L260.668 380H260.911Z" fill="black"/>
<path d="M286.72 431.553V431.349H294.327V380.716H286.72V380.512H309.3V380.716H300.962V431.349H309.3V431.553H286.72Z" fill="black"/>
<path d="M324.304 405.282V405.112H334.725C336.948 405.112 338.836 404.613 340.387 403.615C341.939 402.616 343.12 401.21 343.931 399.395C344.741 397.58 345.147 395.437 345.147 392.964C345.147 390.491 344.741 388.325 343.931 386.465C343.12 384.605 341.928 383.153 340.353 382.109C338.801 381.066 336.925 380.544 334.725 380.544H311.798V380.34H334.725C338.222 380.34 341.268 380.782 343.861 381.667C346.478 382.529 348.505 383.89 349.941 385.75C351.376 387.61 352.094 390.015 352.094 392.964C352.094 395.913 351.423 398.295 350.079 400.11C348.736 401.902 346.768 403.218 344.174 404.057C341.603 404.874 338.454 405.282 334.725 405.282H324.304ZM311.798 431.381V431.177H333.683V431.381H311.798ZM319.406 431.279V380.476H326.041V431.279H319.406ZM351.747 431.721C349.732 431.721 348.157 431.358 347.022 430.632C345.911 429.884 345.1 428.886 344.591 427.638C344.081 426.368 343.757 424.95 343.618 423.385C343.502 421.819 343.433 420.197 343.41 418.519C343.387 416.84 343.294 415.218 343.132 413.653C342.97 412.087 342.611 410.681 342.055 409.433C341.499 408.163 340.607 407.165 339.38 406.439C338.176 405.69 336.508 405.316 334.378 405.316H324.304V405.146H335.767C339.148 405.146 341.835 405.622 343.827 406.575C345.841 407.505 347.335 408.753 348.308 410.318C349.304 411.861 349.964 413.562 350.288 415.422C350.612 417.282 350.774 419.154 350.774 421.037C350.797 422.897 350.832 424.598 350.878 426.141C350.948 427.683 351.203 428.931 351.643 429.884C352.083 430.837 352.905 431.313 354.109 431.313C354.85 431.313 355.545 431.234 356.193 431.075C356.842 430.916 357.409 430.723 357.896 430.496L358 430.632C357.444 430.927 356.633 431.177 355.568 431.381C354.526 431.608 353.252 431.721 351.747 431.721Z" fill="black"/>
<path d="M191 508C191 507.448 190.552 507 190 507C189.448 507 189 507.448 189 508L191 508ZM189.293 574.707C189.683 575.098 190.317 575.098 190.707 574.707L197.071 568.343C197.462 567.953 197.462 567.319 197.071 566.929C196.681 566.538 196.047 566.538 195.657 566.929L190 572.586L184.343 566.929C183.953 566.538 183.319 566.538 182.929 566.929C182.538 567.319 182.538 567.953 182.929 568.343L189.293 574.707ZM189 508L189 574L191 574L191 508L189 508Z" fill="black"/>
</g>
<defs>
<clipPath id="clip0_635_17722">
<rect width="375" height="812" fill="white"/>
</clipPath>
</defs>
</svg>
