<svg width="817" height="127" viewBox="0 0 817 127" fill="none" xmlns="http://www.w3.org/2000/svg">
<path d="M17.0178 0.412109V123.654H37.2056V124.149H0V123.654H16.5173V0.907064H0V0.412109H17.0178ZM116.038 0.412109V0.907064H98.5197V125.799H97.9357L16.7675 0.412109H35.8708L97.9357 99.072V0.907064H77.9982V0.412109H116.038Z" fill="black"/>
<path d="M122.039 124.149V123.654H140.308V0.907064H122.039V0.412109H176.262V0.907064H156.241V123.654H176.262V124.149H122.039Z" fill="black"/>
<path d="M199.28 0.412109V123.654H219.467V124.149H182.262V123.654H198.779V0.907064H182.262V0.412109H199.28ZM298.3 0.412109V0.907064H280.781V125.799H280.197L199.029 0.412109H218.133L280.197 99.072V0.907064H260.26V0.412109H298.3Z" fill="black"/>
<path d="M304.301 124.149V123.654H319.233V0.907064H304.301V0.412109H391.892V34.2336H391.392C391.392 28.3492 390.419 22.8773 388.472 17.8178C386.581 12.7583 383.578 8.68876 379.463 5.60908C375.347 2.4744 370.036 0.907064 363.529 0.907064H335.166V123.654H361.778C369.452 123.654 375.57 122.06 380.13 118.87C384.69 115.68 387.972 111.336 389.974 105.836C392.031 100.282 393.06 94.0125 393.06 87.0282H393.644V124.149H304.301ZM363.029 78.2841C363.029 74.5995 362.195 71.4373 360.526 68.7976C358.913 66.1028 356.744 64.0405 354.019 62.6107C351.294 61.1258 348.347 60.3834 345.177 60.3834H328.66V59.8885H345.177C348.347 59.8885 351.294 59.2285 354.019 57.9087C356.744 56.5888 358.913 54.664 360.526 52.1343C362.195 49.6045 363.029 46.4974 363.029 42.8127H363.613V78.2841H363.029Z" fill="black"/>
<path d="M516.433 1.23828V1.73324H501.334V124.481H516.433V124.976H468.884V124.481H485.568V64.1793H430.51V124.481H447.194V124.976H399.645V124.481H414.577V1.73324H399.645V1.23828H447.194V1.73324H430.51V63.6843H485.568V1.73324H468.884V1.23828H516.433Z" fill="black"/>
<path d="M552.795 86.2036V85.7087H605.934V86.2036H552.795ZM583.327 0L627.373 125.717H639.302V126.212H590.918V125.717H609.104L575.485 22.6027L539.03 125.717H559.135V126.212H522.43V125.717H538.446L582.743 0H583.327Z" fill="black"/>
<path d="M645.305 124.976V124.481H663.574V1.73324H645.305V1.23828H699.528V1.73324H679.507V124.481H699.528V124.976H645.305Z" fill="black"/>
<path d="M735.559 61.2905V60.878H760.585C765.924 60.878 770.456 59.6682 774.182 57.2484C777.909 54.8287 780.745 51.419 782.691 47.0195C784.638 42.6199 785.611 37.4229 785.611 31.4286C785.611 25.4342 784.638 20.1822 782.691 15.6727C780.745 11.1632 777.881 7.64352 774.099 5.11378C770.373 2.58404 765.868 1.31917 760.585 1.31917H705.527V0.824219H760.585C768.983 0.824219 776.296 1.89661 782.525 4.04139C788.809 6.13118 793.675 9.43083 797.123 13.9404C800.571 18.4499 802.295 24.2793 802.295 31.4286C802.295 38.5778 800.682 44.3522 797.457 48.7518C794.231 53.0963 789.504 56.286 783.275 58.3208C777.102 60.3006 769.539 61.2905 760.585 61.2905H735.559ZM705.527 124.561V124.066H758.082V124.561H705.527ZM723.796 124.314V1.15419H739.73V124.314H723.796ZM801.461 125.386C796.623 125.386 792.841 124.506 790.116 122.747C787.446 120.932 785.5 118.512 784.276 115.487C783.053 112.408 782.274 108.971 781.941 105.176C781.662 101.381 781.496 97.4492 781.44 93.3797C781.384 89.3101 781.162 85.378 780.773 81.5834C780.383 77.7888 779.521 74.3791 778.187 71.3544C776.852 68.2748 774.711 65.855 771.763 64.0952C768.871 62.2804 764.867 61.373 759.751 61.373H735.559V60.9605H763.087C771.207 60.9605 777.658 62.1154 782.441 64.4252C787.279 66.6799 790.867 69.7046 793.202 73.4992C795.594 77.2388 797.179 81.3634 797.957 85.8729C798.736 90.3825 799.125 94.9195 799.125 99.484C799.181 103.994 799.264 108.118 799.375 111.858C799.542 115.597 800.154 118.622 801.211 120.932C802.267 123.242 804.242 124.396 807.134 124.396C808.913 124.396 810.582 124.204 812.139 123.819C813.696 123.434 815.059 122.967 816.226 122.417L816.477 122.747C815.142 123.462 813.195 124.067 810.637 124.561C808.135 125.111 805.076 125.386 801.461 125.386Z" fill="black"/>
</svg>
