<svg width="1920" height="960" viewBox="0 0 1920 960" fill="none" xmlns="http://www.w3.org/2000/svg">
<rect width="1920" height="960" fill="#D8ED1C"/>
<path d="M569.018 417.412V540.654H589.206V541.149H552V540.654H568.517V417.907H552V417.412H569.018ZM668.038 417.412V417.907H650.52V542.799H649.936L568.768 417.412H587.871L649.936 516.072V417.907H629.998V417.412H668.038Z" fill="black"/>
<path d="M674.039 541.149V540.654H692.308V417.907H674.039V417.412H728.262V417.907H708.241V540.654H728.262V541.149H674.039Z" fill="black"/>
<path d="M751.28 417.412V540.654H771.467V541.149H734.262V540.654H750.779V417.907H734.262V417.412H751.28ZM850.3 417.412V417.907H832.781V542.799H832.197L751.029 417.412H770.133L832.197 516.072V417.907H812.26V417.412H850.3Z" fill="black"/>
<path d="M856.301 541.149V540.654H871.233V417.907H856.301V417.412H943.892V451.234H943.392C943.392 445.349 942.419 439.877 940.472 434.818C938.581 429.758 935.578 425.689 931.463 422.609C927.347 419.474 922.036 417.907 915.529 417.907H887.166V540.654H913.778C921.452 540.654 927.57 539.06 932.13 535.87C936.69 532.68 939.972 528.336 941.974 522.836C944.031 517.282 945.06 511.012 945.06 504.028H945.644V541.149H856.301ZM915.029 495.284C915.029 491.599 914.195 488.437 912.526 485.798C910.913 483.103 908.744 481.041 906.019 479.611C903.294 478.126 900.347 477.383 897.177 477.383H880.66V476.888H897.177C900.347 476.888 903.294 476.229 906.019 474.909C908.744 473.589 910.913 471.664 912.526 469.134C914.195 466.605 915.029 463.497 915.029 459.813H915.613V495.284H915.029Z" fill="black"/>
<path d="M1068.43 418.238V418.733H1053.33V541.481H1068.43V541.976H1020.88V541.481H1037.57V481.179H982.51V541.481H999.194V541.976H951.645V541.481H966.577V418.733H951.645V418.238H999.194V418.733H982.51V480.684H1037.57V418.733H1020.88V418.238H1068.43Z" fill="black"/>
<path d="M1104.79 503.204V502.709H1157.93V503.204H1104.79ZM1135.33 417L1179.37 542.717H1191.3V543.212H1142.92V542.717H1161.1L1127.49 439.603L1091.03 542.717H1111.13V543.212H1074.43V542.717H1090.45L1134.74 417H1135.33Z" fill="black"/>
<path d="M1197.3 541.976V541.481H1215.57V418.733H1197.3V418.238H1251.53V418.733H1231.51V541.481H1251.53V541.976H1197.3Z" fill="black"/>
<path d="M1287.56 478.29V477.878H1312.58C1317.92 477.878 1322.46 476.668 1326.18 474.248C1329.91 471.829 1332.74 468.419 1334.69 464.019C1336.64 459.62 1337.61 454.423 1337.61 448.429C1337.61 442.434 1336.64 437.182 1334.69 432.673C1332.74 428.163 1329.88 424.644 1326.1 422.114C1322.37 419.584 1317.87 418.319 1312.58 418.319H1257.53V417.824H1312.58C1320.98 417.824 1328.3 418.897 1334.52 421.041C1340.81 423.131 1345.68 426.431 1349.12 430.94C1352.57 435.45 1354.3 441.279 1354.3 448.429C1354.3 455.578 1352.68 461.352 1349.46 465.752C1346.23 470.096 1341.5 473.286 1335.28 475.321C1329.1 477.301 1321.54 478.29 1312.58 478.29H1287.56ZM1257.53 541.561V541.067H1310.08V541.561H1257.53ZM1275.8 541.314V418.154H1291.73V541.314H1275.8ZM1353.46 542.386C1348.62 542.386 1344.84 541.506 1342.12 539.747C1339.45 537.932 1337.5 535.512 1336.28 532.487C1335.05 529.408 1334.27 525.971 1333.94 522.176C1333.66 518.381 1333.5 514.449 1333.44 510.38C1333.38 506.31 1333.16 502.378 1332.77 498.583C1332.38 494.789 1331.52 491.379 1330.19 488.354C1328.85 485.275 1326.71 482.855 1323.76 481.095C1320.87 479.28 1316.87 478.373 1311.75 478.373H1287.56V477.961H1315.09C1323.21 477.961 1329.66 479.115 1334.44 481.425C1339.28 483.68 1342.87 486.705 1345.2 490.499C1347.59 494.239 1349.18 498.363 1349.96 502.873C1350.74 507.382 1351.13 511.92 1351.13 516.484C1351.18 520.994 1351.26 525.118 1351.38 528.858C1351.54 532.597 1352.15 535.622 1353.21 537.932C1354.27 540.242 1356.24 541.396 1359.13 541.396C1360.91 541.396 1362.58 541.204 1364.14 540.819C1365.7 540.434 1367.06 539.967 1368.23 539.417L1368.48 539.747C1367.14 540.462 1365.2 541.067 1362.64 541.561C1360.13 542.111 1357.08 542.386 1353.46 542.386Z" fill="black"/>
<path d="M963 682C963 681.448 962.552 681 962 681C961.448 681 961 681.448 961 682L963 682ZM961.293 748.707C961.683 749.098 962.317 749.098 962.707 748.707L969.071 742.343C969.462 741.953 969.462 741.319 969.071 740.929C968.681 740.538 968.047 740.538 967.657 740.929L962 746.586L956.343 740.929C955.953 740.538 955.319 740.538 954.929 740.929C954.538 741.319 954.538 741.953 954.929 742.343L961.293 748.707ZM961 682L961 748L963 748L963 682L961 682Z" fill="black"/>
</svg>
