<svg width="768" height="1024" viewBox="0 0 768 1024" fill="none" xmlns="http://www.w3.org/2000/svg">
<g clip-path="url(#clip0_635_17701)">
<rect width="768" height="1024" fill="#D8ED1C"/>
<path d="M31.3404 455.371V566.466H49.5384V566.912H16V566.466H30.8892V455.817H16V455.371H31.3404ZM120.601 455.371V455.817H104.809V568.399H104.283L31.1148 455.371H48.3352L104.283 544.306V455.817H86.3103V455.371H120.601Z" fill="black"/>
<path d="M126.01 566.912V566.466H142.479V455.817H126.01V455.371H174.889V455.817H156.841V566.466H174.889V566.912H126.01Z" fill="black"/>
<path d="M195.637 455.371V566.466H213.835V566.912H180.297V566.466H195.186V455.817H180.297V455.371H195.637ZM284.897 455.371V455.817H269.106V568.399H268.579L195.412 455.371H212.632L268.579 544.306V455.817H250.607V455.371H284.897Z" fill="black"/>
<path d="M290.307 566.912V566.466H303.768V455.817H290.307V455.371H369.265V485.859H368.814C368.814 480.555 367.937 475.622 366.182 471.061C364.478 466.5 361.77 462.832 358.061 460.056C354.351 457.23 349.563 455.817 343.698 455.817H318.13V566.466H342.119C349.037 566.466 354.551 565.028 358.662 562.153C362.773 559.278 365.731 555.361 367.536 550.404C369.39 545.397 370.318 539.746 370.318 533.45H370.844V566.912H290.307ZM343.247 525.568C343.247 522.246 342.495 519.396 340.991 517.016C339.537 514.587 337.582 512.728 335.125 511.439C332.669 510.101 330.012 509.431 327.154 509.431H312.265V508.985H327.154C330.012 508.985 332.669 508.39 335.125 507.2C337.582 506.011 339.537 504.276 340.991 501.995C342.495 499.715 343.247 496.914 343.247 493.592H343.773V525.568H343.247Z" fill="black"/>
<path d="M481.531 456.117V456.563H467.92V567.212H481.531V567.658H438.668V567.212H453.708V512.854H404.077V567.212H419.116V567.658H376.253V567.212H389.714V456.563H376.253V456.117H419.116V456.563H404.077V512.408H453.708V456.563H438.668V456.117H481.531Z" fill="black"/>
<path d="M514.308 532.707V532.261H562.209V532.707H514.308ZM541.831 455L581.535 568.326H592.289V568.772H548.674V568.326H565.067L534.762 475.375L501.9 568.326H520.023V568.772H486.936V568.326H501.374L541.304 455H541.831Z" fill="black"/>
<path d="M597.7 567.658V567.212H614.168V456.563H597.7V456.117H646.578V456.563H628.531V567.212H646.578V567.658H597.7Z" fill="black"/>
<path d="M679.058 510.249V509.877H701.617C706.43 509.877 710.516 508.786 713.874 506.605C717.233 504.424 719.79 501.35 721.545 497.384C723.299 493.418 724.177 488.734 724.177 483.33C724.177 477.926 723.299 473.192 721.545 469.127C719.79 465.062 717.208 461.889 713.799 459.609C710.44 457.329 706.38 456.188 701.617 456.188H651.986V455.742H701.617C709.187 455.742 715.779 456.709 721.394 458.642C727.059 460.526 731.446 463.5 734.554 467.566C737.662 471.631 739.216 476.885 739.216 483.33C739.216 489.775 737.762 494.98 734.855 498.946C731.947 502.862 727.686 505.737 722.071 507.572C716.506 509.356 709.688 510.249 701.617 510.249H679.058ZM651.986 567.283V566.837H699.361V567.283H651.986ZM668.455 567.06V456.04H682.818V567.06H668.455ZM738.464 568.027C734.103 568.027 730.694 567.234 728.237 565.647C725.831 564.011 724.076 561.83 722.973 559.103C721.87 556.327 721.169 553.229 720.868 549.808C720.617 546.388 720.467 542.843 720.417 539.175C720.366 535.506 720.166 531.962 719.815 528.541C719.464 525.121 718.687 522.047 717.484 519.321C716.281 516.544 714.351 514.363 711.694 512.777C709.087 511.141 705.477 510.323 700.865 510.323H679.058V509.951H703.873C711.192 509.951 717.008 510.992 721.319 513.074C725.68 515.107 728.914 517.833 731.02 521.254C733.175 524.625 734.604 528.343 735.306 532.408C736.008 536.473 736.359 540.563 736.359 544.678C736.409 548.743 736.484 552.461 736.584 555.832C736.735 559.203 737.286 561.929 738.239 564.011C739.191 566.093 740.971 567.134 743.578 567.134C745.182 567.134 746.686 566.961 748.09 566.614C749.493 566.267 750.721 565.846 751.774 565.35L752 565.647C750.797 566.292 749.042 566.837 746.736 567.283C744.48 567.779 741.723 568.027 738.464 568.027Z" fill="black"/>
<path d="M387 684C387 683.448 386.552 683 386 683C385.448 683 385 683.448 385 684L387 684ZM385.293 750.707C385.683 751.098 386.317 751.098 386.707 750.707L393.071 744.343C393.462 743.953 393.462 743.319 393.071 742.929C392.681 742.538 392.047 742.538 391.657 742.929L386 748.586L380.343 742.929C379.953 742.538 379.319 742.538 378.929 742.929C378.538 743.319 378.538 743.953 378.929 744.343L385.293 750.707ZM385 684L385 750L387 750L387 684L385 684Z" fill="black"/>
</g>
<defs>
<clipPath id="clip0_635_17701">
<rect width="768" height="1024" fill="white"/>
</clipPath>
</defs>
</svg>
