<svg width="111" height="125" viewBox="0 0 111 125" fill="none" xmlns="http://www.w3.org/2000/svg">
<path d="M30.0314 60.4663V60.0538H55.0575C60.3964 60.0538 64.929 58.8439 68.6551 56.4242C72.3812 54.0044 75.2175 50.5948 77.164 46.1952C79.1105 41.7957 80.0837 36.5987 80.0837 30.6043C80.0837 24.61 79.1105 19.358 77.164 14.8485C75.2175 10.3389 72.3534 6.8193 68.5717 4.28956C64.8456 1.75982 60.3408 0.494955 55.0575 0.494955H0V0H55.0575C63.4552 0 70.7684 1.07239 76.9972 3.21717C83.2815 5.30696 88.1477 8.60661 91.5958 13.1161C95.0438 17.6257 96.7678 23.4551 96.7678 30.6043C96.7678 37.7536 95.155 43.528 91.9294 47.9276C88.7038 52.2721 83.9767 55.4618 77.7479 57.4966C71.5748 59.4764 64.0113 60.4663 55.0575 60.4663H30.0314ZM0 123.737V123.242H52.5549V123.737H0ZM18.269 123.49V0.329973H34.2024V123.49H18.269ZM95.9336 124.562C91.0952 124.562 87.3135 123.682 84.5884 121.922C81.9189 120.108 79.9724 117.688 78.7489 114.663C77.5254 111.583 76.7469 108.146 76.4132 104.352C76.1351 100.557 75.9683 96.625 75.9127 92.5555C75.8571 88.4859 75.6346 84.5538 75.2453 80.7592C74.856 76.9646 73.994 73.5549 72.6592 70.5302C71.3245 67.4505 69.1834 65.0308 66.2359 63.271C63.3439 61.4562 59.3398 60.5488 54.2234 60.5488H30.0314V60.1363H57.5601C65.6797 60.1363 72.1309 61.2912 76.9137 63.6009C81.7521 65.8557 85.3392 68.8804 87.675 72.675C90.0664 76.4146 91.6514 80.5392 92.4299 85.0487C93.2085 89.5583 93.5978 94.0953 93.5978 98.6598C93.6534 103.169 93.7369 107.294 93.8481 111.034C94.015 114.773 94.6267 117.798 95.6834 120.108C96.74 122.417 98.7143 123.572 101.606 123.572C103.386 123.572 105.054 123.38 106.611 122.995C108.169 122.61 109.531 122.142 110.699 121.592L110.949 121.922C109.615 122.637 107.668 123.242 105.11 123.737C102.607 124.287 99.5485 124.562 95.9336 124.562Z" fill="black"/>
</svg>
