<svg width="189" height="189" viewBox="0 0 189 189" fill="none" xmlns="http://www.w3.org/2000/svg">
<mask id="mask0_340_144" style="mask-type:alpha" maskUnits="userSpaceOnUse" x="10" y="10" width="169" height="169">
<rect x="10" y="10" width="169" height="169" fill="#D9D9D9"/>
</mask>
<g mask="url(#mask0_340_144)">
<path d="M64 125.795V63.2047C64 61.3457 64.6367 59.82 65.9101 58.6276C67.1822 57.4364 68.6675 56.8408 70.3657 56.8408C70.9067 56.8408 71.4659 56.9177 72.0433 57.0714C72.6219 57.224 73.1817 57.454 73.7228 57.7615L122.986 89.1233C123.953 89.7829 124.678 90.5728 125.16 91.4929C125.644 92.4141 125.886 93.4164 125.886 94.4996C125.886 95.5829 125.644 96.5852 125.16 97.5064C124.678 98.4265 123.953 99.2164 122.986 99.876L73.7228 131.238C73.1817 131.545 72.6219 131.775 72.0433 131.928C71.4659 132.082 70.9067 132.158 70.3657 132.158C68.6675 132.158 67.1822 131.563 65.9101 130.372C64.6367 129.179 64 127.654 64 125.795ZM74.5625 118.089L111.667 94.4996L74.5625 70.9101V118.089Z" fill="white"/>
</g>
</svg>
